<svg xmlns="http://www.w3.org/2000/svg" viewBox="0 0 200 200" width="200" height="200">
  <defs>
    <linearGradient id="moonGradient" x1="0%" y1="0%" x2="100%" y2="100%">
      <stop offset="0%" style="stop-color:#8B5CF6;stop-opacity:1" />
      <stop offset="100%" style="stop-color:#6B46C1;stop-opacity:1" />
    </linearGradient>
  </defs>
  
  <!-- Moon -->
  <circle cx="100" cy="100" r="60" fill="url(#moonGradient)" />
  
  <!-- Moon craters -->
  <circle cx="85" cy="90" r="8" fill="#5A34A8" opacity="0.3" />
  <circle cx="115" cy="105" r="12" fill="#5A34A8" opacity="0.3" />
  <circle cx="95" cy="115" r="6" fill="#5A34A8" opacity="0.3" />
  
  <!-- Stars -->
  <polygon points="40,40 42,46 48,46 43,50 45,56 40,52 35,56 37,50 32,46 38,46" fill="#FFD700" />
  <polygon points="160,35 162,41 168,41 163,45 165,51 160,47 155,51 157,45 152,41 158,41" fill="#FFD700" />
  <polygon points="170,100 171.5,103 175,103 172,105 173,108 170,106 167,108 168,105 165,103 168.5,103" fill="#FFD700" />
  <polygon points="30,120 31.5,123 35,123 32,125 33,128 30,126 27,128 28,125 25,123 28.5,123" fill="#FFD700" />
  <polygon points="50,160 51.5,163 55,163 52,165 53,168 50,166 47,168 48,165 45,163 48.5,163" fill="#FFD700" />
</svg>
